<?xml version="1.0" encoding="utf-8"?>
<!-- Generator: Adobe Illustrator 22.1.0, SVG Export Plug-In . SVG Version: 6.00 Build 0)  -->
<svg version="1.1" id="Layer_1" xmlns="http://www.w3.org/2000/svg" xmlns:xlink="http://www.w3.org/1999/xlink" viewBox="100 130 600 300" role='presentation'>
<style type="text/css">
	.st0{fill:#C60C46;}
	.st1{fill:#005695;}
</style>
<g>
	<path class="st0" d="M125,369.8c0.8-2.2,1.1-2.6,1.5-2.6c0.4,0,0.7,0.3,1.5,2.4c1,2.6,11.7,30.6,15.8,40.9c2.4,6,4.4,7.1,5.8,7.5
		c1,0.3,2,0.4,2.7,0.4c0.4,0,0.7,0.1,0.7,0.4c0,0.4-0.6,0.5-1.4,0.5c-1,0-6,0-10.6-0.1c-1.3-0.1-2-0.1-2-0.5c0-0.3,0.2-0.4,0.5-0.5
		c0.4-0.1,0.8-0.8,0.4-1.8l-6.3-16.7c-0.1-0.3-0.3-0.4-0.6-0.4h-14.6c-0.3,0-0.5,0.2-0.7,0.5l-4.1,12c-0.6,1.7-1,3.3-1,4.5
		c0,1.4,1.4,2,2.6,2h0.7c0.5,0,0.7,0.1,0.7,0.4c0,0.4-0.4,0.5-1,0.5c-1.6,0-4.5-0.2-5.3-0.2c-0.7,0-4.5,0.2-7.7,0.2
		c-0.9,0-1.3-0.1-1.3-0.5c0-0.3,0.3-0.4,0.6-0.4c0.5,0,1.4-0.1,2-0.1c3.1-0.4,4.5-3,5.7-6.4L125,369.8z M132,396.9
		c0.3,0,0.3-0.2,0.3-0.5l-6.4-18.3c-0.3-1-0.7-1-1,0l-6,18.3c-0.1,0.3,0,0.5,0.2,0.5H132z"/>
	<path class="st0" d="M204.3,411.9c0.2,2,0.6,5.1,3,6c1.7,0.5,3.3,0.5,3.9,0.5c0.3,0,0.5,0.1,0.5,0.4c0,0.3-0.5,0.5-1.2,0.5
		c-1.4,0-8-0.1-10.2-0.3c-1.4-0.1-1.7-0.3-1.7-0.6c0-0.2,0.1-0.4,0.4-0.5c0.3-0.1,0.4-1,0.3-2l-2.8-29.1h-0.1l-14.4,29.4
		c-1.2,2.5-1.6,3.1-2.1,3.1c-0.5,0-0.9-0.5-2-2.6c-1.6-2.8-5.5-10.2-7-13.3c-1.8-3.7-6.6-13.4-7.6-15.7h-0.3l-2.3,26
		c-0.1,0.9-0.1,2-0.1,2.9c0,0.9,0.5,1.4,1.4,1.6c1,0.3,1.9,0.3,2.3,0.3c0.2,0,0.5,0.2,0.5,0.4c0,0.4-0.4,0.5-1.1,0.5
		c-2.2,0-5.1-0.2-5.6-0.2c-0.5,0-3.4,0.2-5,0.2c-0.6,0-1-0.1-1-0.5c0-0.2,0.3-0.4,0.6-0.4c0.5,0,0.9-0.1,1.8-0.2
		c2-0.3,2-2.4,2.3-4.6l4.3-37.6c0.1-0.6,0.3-1,0.7-1c0.4,0,0.9,0.2,1.2,0.9l18,35.8l17.4-35.7c0.3-0.5,0.5-0.9,1-0.9
		c0.4,0,0.7,0.5,0.9,1.6L204.3,411.9z"/>
	<path class="st0" d="M219.2,392.4c0-8.9,0-10.6-0.1-12.4c-0.1-2-0.5-2.9-2.4-3.2c-0.5-0.1-1.5-0.1-2-0.1c-0.2,0-0.5-0.3-0.5-0.5
		c0-0.3,0.3-0.5,1-0.5c2.7,0,6.6,0.1,6.9,0.1c0.4,0,12.9,0.1,14.2,0c1.1-0.1,2.2-0.3,2.7-0.3c0.3-0.1,0.5-0.3,0.8-0.3
		c0.2,0,0.3,0.3,0.3,0.5c0,0.4-0.3,1.1-0.5,2.7c-0.1,0.5-0.2,3.1-0.3,3.8c-0.1,0.3-0.3,0.6-0.5,0.6c-0.3,0-0.5-0.3-0.5-0.7
		c0-0.4-0.1-1.4-0.3-2c-0.4-1-1-1.4-4.3-1.8c-1-0.1-7.9-0.2-8.6-0.2c-0.3,0-0.3,0.2-0.3,0.6v15.7c0,0.4,0,0.6,0.3,0.6
		c0.7,0,8.6,0,10-0.1c1.4-0.1,2.3-0.2,2.9-0.8c0.4-0.4,0.7-0.7,0.9-0.7c0.2,0,0.3,0.1,0.3,0.5c0,0.3-0.3,1.3-0.5,3.2
		c-0.1,1.2-0.3,3.3-0.3,3.7c0,0.5-0.1,1.1-0.5,1.1c-0.3,0-0.4-0.2-0.4-0.5c0-0.5,0-1.1-0.3-1.9c-0.2-0.8-0.8-1.5-3.1-1.8
		c-1.6-0.2-8-0.3-9-0.3c-0.3,0-0.4,0.2-0.4,0.4v4.8c0,2-0.1,8.7,0,9.8c0.1,3.9,1.2,4.6,7.1,4.6c1.6,0,4.4,0,6-0.6
		c1.6-0.7,2.4-1.7,2.7-4c0.1-0.7,0.3-0.9,0.6-0.9c0.3,0,0.4,0.5,0.4,0.9c0,0.4-0.5,4.3-0.8,5.6c-0.4,1.5-1,1.5-3.3,1.5
		c-4.5,0-7.9-0.1-10.4-0.2c-2.5-0.1-4.1-0.1-4.9-0.1c-0.1,0-1.3,0-2.6,0.1c-1.1,0.1-2.5,0.1-3.5,0.1c-0.6,0-0.9-0.1-0.9-0.5
		c0-0.2,0.1-0.5,0.5-0.5c0.5,0,1.3-0.2,1.8-0.3c1.2-0.2,1.3-1.4,1.6-3.1c0.3-2.4,0.3-6.9,0.3-12.5V392.4z"/>
	<path class="st0" d="M253.7,392.4c0-8.9,0-10.6-0.1-12.4c-0.1-2-0.5-2.9-2.4-3.2c-0.5-0.1-1.5-0.1-2-0.1c-0.2,0-0.5-0.3-0.5-0.5
		c0-0.3,0.3-0.5,0.9-0.5c2.7,0,6.7,0.1,7.1,0.1c0.6,0,5.6-0.1,7.5-0.1c3.8,0,8,0.3,11.1,2.5c1.5,1.1,4.1,3.9,4.1,7.9
		c0,4.3-1.8,8.4-7.3,13.2c4.9,6.1,9,11.3,12.5,14.9c3.2,3.2,5.1,3.8,6.6,4c1.2,0.2,1.8,0.2,2.1,0.2c0.3,0,0.5,0.3,0.5,0.5
		c0,0.3-0.3,0.5-1.4,0.5h-3.7c-3.4,0-4.9-0.3-6.4-1.1c-2.6-1.4-4.8-4.1-8.1-8.5c-2.5-3.1-5.2-6.8-6.4-8.4c-0.3-0.3-0.4-0.3-0.8-0.3
		l-7.6-0.1c-0.3,0-0.4,0.1-0.4,0.5v1.4c0,5.6,0,10,0.3,12.4c0.2,1.7,0.5,2.8,2.4,3.1c0.8,0.1,2.1,0.3,2.6,0.3c0.4,0,0.5,0.3,0.5,0.5
		c0,0.3-0.3,0.5-0.9,0.5c-3.2,0-7.1-0.2-7.3-0.2c-0.1,0-4.1,0.2-5.9,0.2c-0.6,0-0.9-0.1-0.9-0.5c0-0.2,0.1-0.5,0.5-0.5
		c0.5,0,1.3-0.1,1.8-0.3c1.1-0.3,1.3-1.4,1.6-3.1c0.3-2.4,0.3-6.9,0.3-12.5V392.4z M258.8,397.3c0,0.3,0.1,0.5,0.4,0.7
		c0.9,0.5,3.9,0.9,6.6,0.9c1.4,0,3-0.1,4.5-1c2-1.4,3.6-4.4,3.6-8.8c0-7.2-3.9-11.3-10.3-11.3c-1.8,0-3.7,0.2-4.3,0.3
		c-0.3,0.1-0.5,0.3-0.5,0.7V397.3z"/>
	<path class="st0" d="M302.5,402.6c0,5.6,0,10.1,0.3,12.5c0.2,1.7,0.4,2.8,2.2,3.1c0.9,0.1,2.2,0.3,2.7,0.3c0.3,0,0.5,0.3,0.5,0.5
		c0,0.3-0.3,0.5-1,0.5c-3.3,0-7.2-0.2-7.5-0.2c-0.3,0-4.1,0.2-5.9,0.2c-0.6,0-0.9-0.1-0.9-0.5c0-0.2,0.1-0.5,0.5-0.5
		c0.5,0,1.3-0.1,1.8-0.3c1.2-0.3,1.4-1.4,1.6-3.1c0.3-2.4,0.3-6.9,0.3-12.5v-10.2c0-8.9,0-10.6-0.1-12.4c-0.1-2-0.6-2.8-1.9-3.1
		c-0.7-0.1-1.4-0.2-1.8-0.2c-0.3,0-0.5-0.3-0.5-0.5c0-0.3,0.3-0.5,0.9-0.5c2,0,5.7,0.1,6,0.1c0.3,0,4.1-0.1,6-0.1
		c0.7,0,0.9,0.1,0.9,0.5c0,0.2-0.3,0.5-0.5,0.5c-0.4,0-0.8,0-1.5,0.1c-1.6,0.3-2,1.1-2.1,3.2c-0.1,1.8-0.1,3.5-0.1,12.4V402.6z"/>
	<path class="st0" d="M320,413.9c-5.8-5-7.2-11.6-7.2-17.1c0-3.9,1.4-10.6,6.7-15.7c3.6-3.5,9-6.2,18.2-6.2c2.4,0,5.8,0.2,8.7,0.7
		c2.2,0.4,4.1,0.8,6.1,0.9c0.6,0,0.7,0.3,0.7,0.6c0,0.5-0.1,1.1-0.3,3.3c-0.1,1.9-0.1,5.1-0.1,5.9c-0.1,0.9-0.3,1.2-0.7,1.2
		c-0.4,0-0.5-0.4-0.5-1.2c0-2.2-0.9-4.5-2.5-5.8c-2.1-1.8-6.4-3.2-11.7-3.2c-7.7,0-11.3,2-13.4,4c-4.4,4.1-5.3,9.2-5.3,15
		c0,11.1,8.7,20.9,21.5,20.9c4.5,0,7.5-0.3,9.8-2.7c1.3-1.3,2.1-3.7,2.3-4.8c0.1-0.6,0.2-0.8,0.6-0.8c0.3,0,0.5,0.4,0.5,0.8
		c0,0.4-0.8,5.4-1.4,7.4c-0.3,1.1-0.5,1.3-1.5,1.7c-2.4,1-6.9,1.3-10.8,1.3C330.7,420.1,324.6,418,320,413.9z"/>
	<path class="st0" d="M374.6,376.9c0.7-1.9,1-2.2,1.4-2.2c0.6,0,0.8,0.8,1.4,2.1c1.1,2.4,10.6,26.2,14.3,35c2.2,5.2,3.8,5.9,5.1,6.3
		c0.9,0.3,1.8,0.3,2.4,0.3c0.3,0,0.7,0.1,0.7,0.5c0,0.3-0.7,0.5-1.4,0.5c-0.9,0-5.3,0-9.4-0.1c-1.2-0.1-2.1-0.1-2.1-0.4
		c0-0.3,0.1-0.3,0.4-0.4c0.3-0.1,0.9-0.6,0.5-1.6l-5.4-13.2c-0.1-0.3-0.2-0.3-0.5-0.3h-13.8c-0.3,0-0.5,0.1-0.6,0.5l-3.4,9.2
		c-0.5,1.4-0.9,2.8-0.9,3.9c0,1.2,1,1.6,2,1.6h0.5c0.5,0,0.6,0.2,0.6,0.5c0,0.3-0.3,0.5-0.9,0.5c-1.4,0-4.7-0.2-5.4-0.2
		c-0.6,0-3.6,0.2-6,0.2c-0.7,0-1.2-0.1-1.2-0.5c0-0.3,0.3-0.5,0.5-0.5c0.4,0,1.3-0.1,1.8-0.1c2.7-0.3,3.9-2.4,5-5.3L374.6,376.9z
		 M381.3,400.9c0.3,0,0.3-0.1,0.2-0.4l-5.9-15.8c-0.3-0.9-0.7-0.9-1,0l-5.6,15.8c-0.1,0.3,0,0.4,0.2,0.4H381.3z"/>
	<path class="st0" d="M407.2,411.5c0.1,4.7,0.7,6.2,2.3,6.6c1.1,0.3,2.4,0.3,3,0.3c0.3,0,0.5,0.2,0.5,0.5c0,0.3-0.4,0.5-1.1,0.5
		c-3.4,0-5.8-0.2-6.3-0.2c-0.5,0-3,0.2-5.8,0.2c-0.6,0-0.9-0.1-0.9-0.5c0-0.3,0.2-0.5,0.5-0.5c0.5,0,1.6-0.1,2.4-0.3
		c1.5-0.4,1.7-2,1.7-7.2v-33c0-2.3,0.3-2.9,0.8-2.9c0.7,0,1.7,1.1,2.3,1.8c0.9,0.9,9.6,10.2,18.8,19.6c5.9,6.1,12.3,12.9,14.1,14.8
		l-0.6-28.9c-0.1-3.7-0.4-5-2.2-5.4c-1.1-0.2-2.4-0.3-2.9-0.3c-0.4,0-0.5-0.3-0.5-0.5c0-0.3,0.5-0.4,1.2-0.4c2.7,0,5.6,0.1,6.2,0.1
		c0.7,0,2.6-0.1,5.1-0.1c0.6,0,1.1,0.1,1.1,0.4c0,0.2-0.3,0.5-0.7,0.5c-0.3,0-0.7,0-1.4,0.1c-2,0.4-2.1,1.6-2.1,5l-0.1,33.8
		c0,3.8-0.1,4.1-0.5,4.1c-0.6,0-1.2-0.5-4.5-3.5c-0.6-0.5-9.2-9-15.5-15.6c-6.9-7.3-13.6-14.3-15.4-16.3L407.2,411.5z"/>
	<path class="st0" d="M523.1,410h0.3c1.8-6.2,8.1-25.9,10.4-34.6c0.7-2.5,0.7-3.4,0.7-4.3c0-1.2-0.7-2-3.9-2c-0.3,0-0.6-0.2-0.6-0.5
		c0-0.3,0.3-0.5,1.2-0.5c3.5,0,6.3,0.2,6.9,0.2c0.5,0,3.4-0.2,5.5-0.2c0.6,0,0.9,0.1,0.9,0.4c0,0.3-0.2,0.5-0.6,0.5
		c-0.3,0-1.5,0.1-2.3,0.3c-2,0.7-3.1,3.6-4.4,7.3c-3,8.6-9.8,30.2-12.5,37.7c-1.8,5-2.1,5.8-2.9,5.8c-0.7,0-1.1-0.9-2-3.5
		l-13.3-37.7h-0.1c-2.4,6.5-11.7,31.3-14.2,37.6c-1.1,2.8-1.4,3.6-2.2,3.6c-0.7,0-1-0.7-2.4-5.4l-12.1-40.2c-1.1-3.6-2-4.6-3.7-5.3
		c-0.9-0.3-2.6-0.4-3-0.4c-0.3,0-0.6-0.1-0.6-0.5c0-0.3,0.4-0.5,1.1-0.5c3.5,0,7.2,0.2,8,0.2c0.6,0,3.6-0.2,7-0.2
		c0.9,0,1.2,0.2,1.2,0.5c0,0.4-0.3,0.5-0.7,0.5c-0.5,0-1.8,0-2.6,0.4c-0.4,0.2-0.9,0.7-0.9,1.6c0,0.9,0.6,3.3,1.3,6.2
		c1,4.3,8.1,29.2,9.1,32.8h0.1l14.4-38.6c1-2.8,1.3-3.1,1.7-3.1c0.5,0,0.9,0.9,1.7,3.2L523.1,410z"/>
	<path class="st0" d="M556.6,376.9c0.7-1.9,1-2.2,1.4-2.2c0.6,0,0.8,0.8,1.4,2.1c1.1,2.4,10.6,26.2,14.3,35c2.2,5.2,3.8,5.9,5.1,6.3
		c0.9,0.3,1.8,0.3,2.4,0.3c0.3,0,0.7,0.1,0.7,0.5c0,0.3-0.7,0.5-1.4,0.5c-0.9,0-5.3,0-9.4-0.1c-1.2-0.1-2.1-0.1-2.1-0.4
		c0-0.3,0.1-0.3,0.4-0.4c0.3-0.1,1-0.6,0.5-1.6l-5.4-13.2c-0.1-0.3-0.2-0.3-0.5-0.3h-13.8c-0.3,0-0.5,0.1-0.6,0.5l-3.4,9.2
		c-0.5,1.4-0.9,2.8-0.9,3.9c0,1.2,1,1.6,2,1.6h0.5c0.5,0,0.6,0.2,0.6,0.5c0,0.3-0.3,0.5-0.9,0.5c-1.4,0-4.7-0.2-5.3-0.2
		c-0.6,0-3.6,0.2-6,0.2c-0.7,0-1.2-0.1-1.2-0.5c0-0.3,0.3-0.5,0.5-0.5c0.4,0,1.3-0.1,1.8-0.1c2.7-0.3,3.9-2.4,5-5.3L556.6,376.9z
		 M563.2,400.9c0.3,0,0.3-0.1,0.2-0.4l-5.9-15.8c-0.3-0.9-0.7-0.9-1,0l-5.6,15.8c-0.1,0.3,0,0.4,0.2,0.4H563.2z"/>
	<path class="st0" d="M597.7,402.6c0,5.6,0,10.1,0.3,12.5c0.2,1.7,0.5,2.8,2.3,3.1c0.8,0.1,2.2,0.3,2.7,0.3c0.4,0,0.5,0.3,0.5,0.5
		c0,0.3-0.3,0.5-0.9,0.5c-3.3,0-7-0.2-7.4-0.2c-0.3,0-4.4,0.2-6.2,0.2c-0.7,0-0.9-0.1-0.9-0.5c0-0.2,0.1-0.4,0.5-0.4
		c0.5,0,1.2-0.1,1.8-0.3c1.2-0.3,1.6-1.4,1.8-3.1c0.3-2.4,0.3-6.9,0.3-12.5v-24.2l-8.6,0.1c-3.7,0.1-5.1,0.5-6,1.8
		c-0.7,1-0.7,1.4-0.9,1.8c-0.1,0.5-0.3,0.5-0.6,0.5c-0.1,0-0.4-0.1-0.4-0.5c0-0.6,1.2-5.8,1.3-6.2c0.1-0.3,0.4-1.1,0.6-1.1
		c0.4,0,1,0.5,2.6,0.7c1.7,0.2,4,0.3,4.7,0.3h22.5c2,0,3.3-0.1,4.3-0.3c0.9-0.1,1.4-0.3,1.7-0.3c0.3,0,0.3,0.3,0.3,0.7
		c0,1.8-0.2,5.9-0.2,6.6c0,0.5-0.3,0.7-0.6,0.7c-0.3,0-0.4-0.2-0.5-1l-0.1-0.6c-0.2-1.8-1.5-3-7.2-3.2l-7.5-0.1V402.6z"/>
	<path class="st0" d="M622.6,392.4c0-8.9,0-10.6-0.1-12.4c-0.1-2-0.5-2.9-2.4-3.2c-0.5-0.1-1.5-0.1-2-0.1c-0.2,0-0.5-0.3-0.5-0.5
		c0-0.3,0.3-0.5,0.9-0.5c2.7,0,6.6,0.1,6.9,0.1c0.4,0,12.9,0.1,14.2,0c1.2-0.1,2.2-0.3,2.7-0.3c0.3-0.1,0.6-0.3,0.8-0.3
		c0.2,0,0.3,0.3,0.3,0.5c0,0.4-0.3,1.1-0.5,2.7c-0.1,0.5-0.2,3.1-0.3,3.8c-0.1,0.3-0.3,0.6-0.5,0.6c-0.3,0-0.5-0.3-0.5-0.7
		c0-0.4-0.1-1.4-0.3-2c-0.4-1-1-1.4-4.3-1.8c-1-0.1-7.9-0.2-8.6-0.2c-0.3,0-0.3,0.2-0.3,0.6v15.7c0,0.4,0,0.6,0.3,0.6
		c0.7,0,8.6,0,10-0.1c1.4-0.1,2.3-0.2,2.9-0.8c0.4-0.4,0.7-0.7,0.9-0.7c0.2,0,0.3,0.1,0.3,0.5c0,0.3-0.3,1.3-0.5,3.2
		c-0.1,1.2-0.3,3.3-0.3,3.7c0,0.5-0.1,1.1-0.5,1.1c-0.3,0-0.4-0.2-0.4-0.5c0-0.5,0-1.1-0.3-1.9c-0.2-0.8-0.7-1.5-3-1.8
		c-1.6-0.2-8-0.3-9-0.3c-0.3,0-0.4,0.2-0.4,0.4v4.8c0,2-0.1,8.7,0,9.8c0.1,3.9,1.2,4.6,7.1,4.6c1.6,0,4.4,0,6-0.6
		c1.5-0.7,2.4-1.7,2.7-4c0.1-0.7,0.3-0.9,0.6-0.9c0.3,0,0.4,0.5,0.4,0.9c0,0.4-0.5,4.3-0.8,5.6c-0.4,1.5-1,1.5-3.3,1.5
		c-4.5,0-7.9-0.1-10.4-0.2c-2.5-0.1-4.1-0.1-4.9-0.1c-0.1,0-1.3,0-2.6,0.1c-1.1,0.1-2.5,0.1-3.5,0.1c-0.6,0-0.9-0.1-0.9-0.5
		c0-0.2,0.1-0.5,0.5-0.5c0.6,0,1.3-0.2,1.8-0.3c1.2-0.2,1.3-1.4,1.6-3.1c0.3-2.4,0.3-6.9,0.3-12.5V392.4z"/>
	<path class="st0" d="M656,392.4c0-8.9,0-10.6-0.1-12.4c-0.1-2-0.5-2.9-2.4-3.2c-0.5-0.1-1.5-0.1-2-0.1c-0.2,0-0.5-0.3-0.5-0.5
		c0-0.3,0.3-0.5,0.9-0.5c2.7,0,6.7,0.1,7.1,0.1c0.6,0,5.6-0.1,7.5-0.1c3.8,0,8,0.3,11.1,2.5c1.5,1.1,4.1,3.9,4.1,7.9
		c0,4.3-1.8,8.4-7.3,13.2c4.9,6.1,9,11.3,12.5,14.9c3.2,3.2,5.2,3.8,6.7,4c1.2,0.2,1.8,0.2,2.1,0.2c0.3,0,0.5,0.3,0.5,0.5
		c0,0.3-0.3,0.5-1.4,0.5h-3.7c-3.4,0-4.9-0.3-6.4-1.1c-2.6-1.4-4.7-4.1-8.1-8.5c-2.5-3.1-5.2-6.8-6.4-8.4c-0.3-0.3-0.4-0.3-0.8-0.3
		l-7.6-0.1c-0.3,0-0.4,0.1-0.4,0.5v1.4c0,5.6,0,10,0.3,12.4c0.2,1.7,0.5,2.8,2.4,3.1c0.8,0.1,2.1,0.3,2.6,0.3c0.4,0,0.5,0.3,0.5,0.5
		c0,0.3-0.3,0.5-0.9,0.5c-3.3,0-7.1-0.2-7.3-0.2c-0.1,0-4.1,0.2-5.9,0.2c-0.6,0-0.9-0.1-0.9-0.5c0-0.2,0.1-0.5,0.5-0.5
		c0.5,0,1.3-0.1,1.8-0.3c1.1-0.3,1.3-1.4,1.6-3.1c0.3-2.4,0.3-6.9,0.3-12.5V392.4z M661.1,397.3c0,0.3,0.1,0.5,0.4,0.7
		c0.9,0.5,3.9,0.9,6.6,0.9c1.4,0,3.1-0.1,4.5-1c2-1.4,3.6-4.4,3.6-8.8c0-7.2-3.9-11.3-10.3-11.3c-1.8,0-3.7,0.2-4.3,0.3
		c-0.3,0.1-0.5,0.3-0.5,0.7V397.3z"/>
</g>
<path class="st1" d="M468.2,197.9v-5.6c-1.3,1-4.6,3.4-8,3.4c-4.3,0-8.5-3.9-8.5-3.9s0,0-0.1,0.1v0c-0.7,0.6-3.7,3-7,3.7h0
	c-0.2,0-0.5,0.1-0.7,0.1h0c-0.2,0-0.5,0-0.7,0c-4.3,0-8.5-3.9-8.5-3.9h0v0l0,0c0,0-4.3,3.9-8.5,3.9c-2,0-3.9-0.8-5.5-1.7
	c-0.9-0.5-1.7-1.2-2.5-2.2c-0.7-0.9-1.2-1.9-1.5-2.8h0l-15.4-48.7l-17.3,54.6l-57.3-0.4l46.6,33.3l-18.1,54.3l46.1-34l46.1,34
	l-16.2-48.6c-1.5,0.7-3.3,1.4-5.1,1.4c-4.3,0-8.5-3.6-8.5-3.6s-4.3,3.6-8.5,3.6c-4.3,0-8.5-3.9-8.5-3.9l0,0.3v-6.4h0
	c0,0,4.3,3.9,8.5,3.9c4.3,0,8.5-3.9,8.5-3.9s4.3,3.9,8.5,3.9c3.7,0,7.5-3,8.3-3.7v-6.8c-0.9,0.7-4.6,3.4-8.3,3.4
	c-4.3,0-8.5-3.6-8.5-3.6s-4.3,3.6-8.5,3.6c-4.3,0-8.5-3.9-8.5-3.9s0,0.3,0,0.3v-6.4c0,0,0,0,0,0s4.3,3.9,8.5,3.9
	c4.3,0,8.5-3.9,8.5-3.9s4.3,3.9,8.5,3.9c4.3,0,8.5-3.9,8.5-3.9l0,0v0c0,0,0,0,0,0s4.3,3.9,8.5,3.9c0.2,0,0.5,0,0.7,0c0,0,0,0,0,0
	c0.2,0,0.5-0.1,0.7-0.1c0,0,0,0,0,0c1.4-0.3,2.7-0.8,3.8-1.4l3.1-2.2V205c-0.8,0.6-3.7,2.7-6.9,3.3c0,0,0,0,0,0
	c-0.2,0-0.5,0.1-0.7,0.1c0,0,0,0,0,0c-0.2,0-0.5,0-0.7,0h0c-4.3,0-8.5-3.6-8.5-3.6s-4.3,3.6-8.5,3.6c-4.3,0-8.5-3.6-8.5-3.6
	s-4.3,3.6-8.5,3.6c-4.3,0-8.5-3.9-8.5-3.9s0,0.3,0,0.3v-6.4c0,0,0,0,0,0v0.2c0,0,0-0.1,0-0.2c0,0,4.3,3.9,8.5,3.9
	c1.9,0,3.8-0.8,5.3-1.7c1.9-1,3.2-2.1,3.2-2.1s1.2,1,2.9,1.9c1.6,0.9,3.6,1.8,5.6,1.8c1.9,0,3.8-0.8,5.3-1.7c1.9-1,3.2-2.1,3.2-2.1
	s1.3,1.1,3.1,2c1.5,0.9,3.5,1.7,5.4,1.7c0.2,0,0.5,0,0.7,0c0,0,0,0,0,0c0.2,0,0.5-0.1,0.7-0.1c0,0,0,0,0,0c1.7-0.3,3.3-1.1,4.6-1.9
	c1.5-0.9,2.5-1.7,2.5-1.7s1.2,1,3,2c1.6,0.9,3.5,1.8,5.5,1.8c1.8,0,3.7-0.7,5.2-1.6c1.2-0.6,2.2-1.3,2.8-1.7V199c0,0,0,0,0,0
	L468.2,197.9L468.2,197.9z"/>
<path class="st1" d="M534.8,321.3v11.5h0.1l9.1-11.5h7.8l-9.7,12.3l10.8,16.4h-8.1l-7.3-11.8l-2.6,3.3v8.5h-7.2v-28.7H534.8z"/>
<path class="st1" d="M453.2,320.2c10.8,0,12.1,6.2,12.1,14.9c0,8.7-1.3,14.9-12.1,14.9c-10.8,0-12.1-6.2-12.1-14.9
	C441.1,326.4,442.4,320.2,453.2,320.2z M453.2,345.8c4.2,0,4.9-2.9,4.9-10.7c0-7.7-0.7-10.7-4.9-10.7c-4.2,0-4.9,3-4.9,10.7
	C448.2,342.9,448.9,345.8,453.2,345.8z"/>
<path class="st1" d="M407.5,320.5l4.7,11.1h0.1l5-11.1h7.8l-9.2,17.4v11.3h-7.2v-11.3l-9.2-17.4H407.5z"/>
<path class="st1" d="M257.5,320.5l8.7,19.7h0.1v-19.7h6.6v28.7h-8.2l-8.8-20.1h-0.1v20.1h-6.6v-28.7H257.5z"/>
<path class="st1" d="M314.6,320.5v4.8h-12.7v6.8h12v4.8h-12v7.7h13.2v4.8h-20.4v-28.7H314.6z"/>
<path class="st1" d="M333.6,320.5h6.9l3.9,21.3h0.1l4.2-21.3h6.9l4.2,21.3h0.1l3.9-21.3h6.9l-6.5,28.7h-8l-4-20.9h-0.1l-4,20.9h-8
	L333.6,320.5z"/>
<path class="st1" d="M484.3,320.8h13.3c5.9,0,9.5,2.5,9.5,7.4c0,3.8-1.9,6.4-5.9,7.1v0.1c4.9,0.5,5.6,2.7,5.7,8.8
	c0,3,0.2,4.6,1.6,5.2v0.2h-7.8c-0.7-0.8-0.8-1.9-0.9-3l-0.2-5.5c-0.1-2.3-1.3-3.6-4.2-3.6h-3.8v12.2h-7.2V320.8z M491.4,333.3h3
	c3.4,0,5.4-1.2,5.4-4.3c0-2.7-1.7-4-5-4h-3.4V333.3z"/>
</svg>
